<svg viewBox="0 0 480.44 62.77" xmlns="http://www.w3.org/2000/svg" xmlns:xlink="http://www.w3.org/1999/xlink"><pattern id="a" height="189.48" patternTransform="matrix(.04949747 -.04949747 .04949747 .04949747 -5.17 -2.38)" patternUnits="userSpaceOnUse" viewBox="0 0 189.48 189.48" width="189.48"><path d="m0 0h189.48v189.48h-189.48z" fill="none"/><path d="m176.76 18c0 .9-5.3 13.14-6.95 30.34a12.22 12.22 0 0 0 0 20.1c1.65 17.69 7 31.24 7 30.34s5.29-13.14 7-30.33a12.22 12.22 0 0 0 0-20.1c-1.73-17.74-7.05-31.29-7.05-30.35z" fill="#414144" stroke="#80808a" stroke-miterlimit="10"/><path d="m176.23 17.43c0 .9-5.07 13.14-6.65 30.34a12.53 12.53 0 0 0 0 20.1c1.57 17.69 6.66 31.24 6.66 30.34s5.06-13.14 6.64-30.33a12.53 12.53 0 0 0 0-20.1c-1.57-17.7-6.65-31.25-6.65-30.35z" fill="#a5a5a5"/><path d="m86.56 18c0 .9-5.29 13.14-7 30.34a12.22 12.22 0 0 0 0 20.1c1.64 17.69 7 31.24 7 30.34s5.29-13.14 7-30.33a12.21 12.21 0 0 0 0-20.1c-1.68-17.74-7-31.29-7-30.35z" fill="#414144" stroke="#80808a" stroke-miterlimit="10"/><path d="m86 17.43c0 .9-5.06 13.14-6.65 30.34a12.55 12.55 0 0 0 0 20.1c1.59 17.69 6.65 31.24 6.65 30.34s5.06-13.14 6.65-30.33a12.55 12.55 0 0 0 0-20.1c-1.53-17.7-6.65-31.25-6.65-30.35z" fill="#a5a5a5"/><path d="m176.76 108.15c0 .9-5.3 13.15-6.95 30.34a12.22 12.22 0 0 0 0 20.1c1.65 17.7 7 31.25 7 30.35s5.29-13.14 7-30.34a12.22 12.22 0 0 0 0-20.1c-1.73-17.69-7.05-31.24-7.05-30.35z" fill="#414144" stroke="#80808a" stroke-miterlimit="10"/><path d="m176.23 107.62c0 .9-5.07 13.15-6.65 30.34a12.53 12.53 0 0 0 0 20.1c1.57 17.69 6.66 31.25 6.66 30.35s5.06-13.15 6.64-30.34a12.53 12.53 0 0 0 0-20.1c-1.57-17.69-6.65-31.25-6.65-30.35z" fill="#a5a5a5"/><path d="m86.56 108.15c0 .9-5.29 13.15-7 30.34a12.22 12.22 0 0 0 0 20.1c1.64 17.7 7 31.25 7 30.35s5.29-13.14 7-30.34a12.21 12.21 0 0 0 0-20.1c-1.68-17.69-7-31.24-7-30.35z" fill="#414144" stroke="#80808a" stroke-miterlimit="10"/><path d="m86 107.62c0 .9-5.06 13.15-6.65 30.34a12.55 12.55 0 0 0 0 20.1c1.59 17.69 6.65 31.25 6.65 30.35s5.06-13.15 6.65-30.34a12.55 12.55 0 0 0 0-20.1c-1.53-17.69-6.65-31.25-6.65-30.35z" fill="#a5a5a5"/><path d="m171.52 102.92c-.9 0-13.14-5.29-30.34-7a12.21 12.21 0 0 0 -20.1 0c-17.69 1.64-31.24 7-30.34 7s13.14 5.29 30.33 7a12.22 12.22 0 0 0 20.1 0c17.7-1.68 31.25-7 30.35-7z" fill="#414144" stroke="#80808a" stroke-miterlimit="10"/><path d="m172.05 102.39c-.89 0-13.14-5.07-30.34-6.65a12.53 12.53 0 0 0 -20.1 0c-17.69 1.57-31.24 6.66-30.34 6.66s13.14 5.06 30.34 6.64a12.54 12.54 0 0 0 20.1 0c17.69-1.57 31.29-6.65 30.34-6.65z" fill="#a5a5a5"/><path d="m171.52 12.72c-.9 0-13.14-5.29-30.34-7a12.22 12.22 0 0 0 -20.1 0c-17.69 1.64-31.24 7-30.34 7s13.14 5.3 30.33 7a12.22 12.22 0 0 0 20.1 0c17.7-1.72 31.25-7 30.35-7z" fill="#414144" stroke="#80808a" stroke-miterlimit="10"/><path d="m172.05 12.19c-.89 0-13.14-5.06-30.34-6.65a12.55 12.55 0 0 0 -20.1 0c-17.69 1.57-31.24 6.66-30.34 6.66s13.14 5.06 30.34 6.65a12.55 12.55 0 0 0 20.1 0c17.69-1.57 31.29-6.66 30.34-6.66z" fill="#a5a5a5"/><path d="m81.33 102.92c-.9 0-13.15-5.29-30.34-7a12.21 12.21 0 0 0 -20.1 0c-17.69 1.64-31.25 7-30.35 7s13.14 5.29 30.34 7a12.22 12.22 0 0 0 20.1 0c17.69-1.68 31.24-7 30.35-7z" fill="#414144" stroke="#80808a" stroke-miterlimit="10"/><path d="m81.86 102.39c-.9 0-13.15-5.07-30.34-6.65a12.53 12.53 0 0 0 -20.1 0c-17.69 1.56-31.25 6.65-30.35 6.65s13.15 5.06 30.34 6.64a12.54 12.54 0 0 0 20.1 0c17.69-1.56 31.25-6.64 30.35-6.64z" fill="#a5a5a5"/><path d="m81.33 12.72c-.9 0-13.15-5.29-30.34-7a12.22 12.22 0 0 0 -20.1 0c-17.69 1.68-31.25 7-30.35 7s13.14 5.3 30.34 7a12.22 12.22 0 0 0 20.1 0c17.69-1.72 31.24-7 30.35-7z" fill="#414144" stroke="#80808a" stroke-miterlimit="10"/><path d="m81.86 12.19c-.9 0-13.15-5.06-30.34-6.65a12.55 12.55 0 0 0 -20.1 0c-17.69 1.56-31.25 6.65-30.35 6.65s13.15 5.06 30.34 6.65a12.55 12.55 0 0 0 20.1 0c17.69-1.56 31.25-6.65 30.35-6.65z" fill="#a5a5a5"/></pattern><g transform="translate(-4.41 -15.36)"><g fill="#939393"><path d="m4.41 15.36h26.05q12.54 0 12.54 10.85v11.06q0 7.31-4.44 9.18 4.44 1.68 4.44 8.48v12.24q0 11-12.54 11h-26zm24.67 23.88v-11.74c0-1.65-.89-2.47-2.66-2.47h-8.1v16.68h8.1c1.77 0 2.66-.82 2.66-2.47zm0 26.75v-12.24a2.42 2.42 0 0 0 -.59-1.83 3.1 3.1 0 0 0 -2.07-.54h-8.1v17.07h8.1c1.77 0 2.66-.82 2.66-2.45z"/><path d="m80 78.13-2.16-11.35h-14.31l-2.17 11.35h-13.92l14.21-62.77h18l14.57 62.77zm-14.5-21.62h10.26l-5.13-26.51z"/><path d="m132.22 15.36v10.36h-11.55v52.41h-14.11v-52.41h-11.45v-10.36z"/><path d="m170.31 15.36v10.36h-11.55v52.41h-14.11v-52.41h-11.45v-10.36z"/><path d="m189.26 67.76h18.06v10.37h-32.07v-62.77h14z"/><path d="m226 67.76h20.14v10.37h-34.28v-62.77h33.46v10.36h-19.32v15.28h16.49v10.38h-16.49z"/><path d="m269.89 15.36h26.11q12.53 0 12.53 10.85v11.06q0 7.31-4.44 9.18 4.44 1.68 4.44 8.48v12.24q0 11-12.53 11h-26.11zm24.68 23.88v-11.74c0-1.65-.89-2.47-2.67-2.47h-8.09v16.68h8.09c1.78 0 2.67-.82 2.67-2.47zm0 26.75v-12.24a2.38 2.38 0 0 0 -.6-1.83 3.06 3.06 0 0 0 -2.07-.54h-8.09v17.07h8.09q2.67 0 2.67-2.45z"/><path d="m329 15.36h13.23q12.43 0 12.43 10.85v41q0 11-12.43 11h-13.23q-12.54 0-12.53-11v-41q.01-10.84 12.53-10.85zm11.56 49.94v-37.11c0-1.65-.86-2.47-2.57-2.47h-4.74c-1.77 0-2.66.82-2.66 2.47v37.11c0 1.64.89 2.46 2.66 2.46h4.75c1.7 0 2.56-.82 2.56-2.46z"/><path d="m391.78 78.13-2.17-11.35h-14.31l-2.17 11.35h-13.92l14.21-62.77h18l14.58 62.77zm-14.51-21.62h10.27l-5.14-26.51z"/><path d="m444 15.36v10.36h-11.56v52.41h-14.11v-52.41h-11.45v-10.36z"/><path d="m470.74 65.3v-11.3a2.37 2.37 0 0 0 -.6-1.83 3.06 3.06 0 0 0 -2.07-.54h-8.69q-11.64 0-11.64-11.06v-14.36q0-10.84 12.43-10.85h12.05q12.43 0 12.43 10.85v8.19h-14.11v-6.21c0-1.65-.89-2.47-2.67-2.47h-3.35c-1.78 0-2.67.82-2.67 2.47v11.05a2.41 2.41 0 0 0 .59 1.83 3.11 3.11 0 0 0 2.08.54h8.48c4.21 0 7.24.91 9.08 2.71s2.77 4.49 2.77 8v14.8q0 11-12.44 11h-11.94q-12.54 0-12.53-11v-8.04h14.11v6.22c0 1.64.89 2.46 2.66 2.46h3.36q2.67 0 2.67-2.46z"/></g><path d="m4.41 15.36h26.05q12.54 0 12.54 10.85v11.06q0 7.31-4.44 9.18 4.44 1.68 4.44 8.48v12.24q0 11-12.54 11h-26zm24.67 23.88v-11.74c0-1.65-.89-2.47-2.66-2.47h-8.1v16.68h8.1c1.77 0 2.66-.82 2.66-2.47zm0 26.75v-12.24a2.42 2.42 0 0 0 -.59-1.83 3.1 3.1 0 0 0 -2.07-.54h-8.1v17.07h8.1c1.77 0 2.66-.82 2.66-2.45z" fill="url(#a)"/><path d="m80 78.13-2.16-11.35h-14.31l-2.17 11.35h-13.92l14.21-62.77h18l14.57 62.77zm-14.5-21.62h10.26l-5.13-26.51z" fill="url(#a)"/><path d="m132.22 15.36v10.36h-11.55v52.41h-14.11v-52.41h-11.45v-10.36z" fill="url(#a)"/><path d="m170.31 15.36v10.36h-11.55v52.41h-14.11v-52.41h-11.45v-10.36z" fill="url(#a)"/><path d="m189.26 67.76h18.06v10.37h-32.07v-62.77h14z" fill="url(#a)"/><path d="m226 67.76h20.14v10.37h-34.28v-62.77h33.46v10.36h-19.32v15.28h16.49v10.38h-16.49z" fill="url(#a)"/><path d="m269.89 15.36h26.11q12.53 0 12.53 10.85v11.06q0 7.31-4.44 9.18 4.44 1.68 4.44 8.48v12.24q0 11-12.53 11h-26.11zm24.68 23.88v-11.74c0-1.65-.89-2.47-2.67-2.47h-8.09v16.68h8.09c1.78 0 2.67-.82 2.67-2.47zm0 26.75v-12.24a2.38 2.38 0 0 0 -.6-1.83 3.06 3.06 0 0 0 -2.07-.54h-8.09v17.07h8.09q2.67 0 2.67-2.45z" fill="url(#a)"/><path d="m329 15.36h13.23q12.43 0 12.43 10.85v41q0 11-12.43 11h-13.23q-12.54 0-12.53-11v-41q.01-10.84 12.53-10.85zm11.56 49.94v-37.11c0-1.65-.86-2.47-2.57-2.47h-4.74c-1.77 0-2.66.82-2.66 2.47v37.11c0 1.64.89 2.46 2.66 2.46h4.75c1.7 0 2.56-.82 2.56-2.46z" fill="url(#a)"/><path d="m391.78 78.13-2.17-11.35h-14.31l-2.17 11.35h-13.92l14.21-62.77h18l14.58 62.77zm-14.51-21.62h10.27l-5.14-26.51z" fill="url(#a)"/><path d="m444 15.36v10.36h-11.56v52.41h-14.11v-52.41h-11.45v-10.36z" fill="url(#a)"/><path d="m470.74 65.3v-11.3a2.37 2.37 0 0 0 -.6-1.83 3.06 3.06 0 0 0 -2.07-.54h-8.69q-11.64 0-11.64-11.06v-14.36q0-10.84 12.43-10.85h12.05q12.43 0 12.43 10.85v8.19h-14.11v-6.21c0-1.65-.89-2.47-2.67-2.47h-3.35c-1.78 0-2.67.82-2.67 2.47v11.05a2.41 2.41 0 0 0 .59 1.83 3.11 3.11 0 0 0 2.08.54h8.48c4.21 0 7.24.91 9.08 2.71s2.77 4.49 2.77 8v14.8q0 11-12.44 11h-11.94q-12.54 0-12.53-11v-8.04h14.11v6.22c0 1.64.89 2.46 2.66 2.46h3.36q2.67 0 2.67-2.46z" fill="url(#a)"/></g></svg>