<svg viewBox="0 0 415 94.27" xmlns="http://www.w3.org/2000/svg"><path d="m378.78 247.51v-3.34h21v-2h-2.38c-5.9 0-11.8 0-17.7 0a3.86 3.86 0 0 1 -2.21-.4c-2.29-1.79-4.91-1.74-7.6-1.69-3.65.06-7.31.15-10.95 0s-5.72 2.06-4.31 6h4.55c.38 0 .73.41 1.09.63-.3.27-.61.79-.92.79-3.13.06-6.27 0-9.44 0v-8.8c1.05-.06 1.94-.14 2.84-.18 5.34-.22 10.67-.42 16-.69.55 0 1.08-.53 1.62-.81-.54-.26-1.07-.74-1.6-.75-5.41-.06-10.83-.15-16.23 0a10.35 10.35 0 0 1 -6.15-1.64 5 5 0 0 0 -2.54-.72c-4.78-.07-9.56-.08-14.33 0a4.68 4.68 0 0 0 -2.43.89c-2.15 1.49-.9 3.62-1.17 5.71h5.55v6.27h-4.47c-.09-.72-.16-1.32-.24-1.9-2.79-.44-3.65-1.45-3.64-4.25v-5.15h-11.65a9.58 9.58 0 0 1 -.14-2.24c.31-1.63-.43-2.2-1.9-2.83-5.45-2.32-11.06-.78-16.79-1.34v4.62c-2.77.37-1.84-1.53-1.89-2.56-.11-2.91-.95-3.83-3.83-3.84-1.17 0-2.34 0-3.5 0l-.4-.74 2.32-2.14a8.55 8.55 0 0 0 0-1.68 2.44 2.44 0 0 1 2-3.09c1.4-.37 2.79-.8 4.17-1.26a3.44 3.44 0 0 0 .85-.65c-.28-.23-.54-.6-.85-.64a13.07 13.07 0 0 0 -2 0c.34-1.61.61-2.92 1-4.76l-5.29 1.13c.51-1.26.84-2.09 1.22-3-1-.07-2.86.15-3-.28-.74-2-2.43-1.13-3.46-1.43-.46-3.76-1-7.32-1.3-10.9-.2-2.35 0-4.73 0-7.11v-9.86h-7a36.8 36.8 0 0 0 2.67 2.78 6.11 6.11 0 0 1 2.19 5.3c-.16 6-.05 12-.06 18 0 .73-.07 1.47-.1 2.16-9.24.93-8.75 2.28-7.93 6.34a14.16 14.16 0 0 1 1.84 0 12.19 12.19 0 0 1 1.67.47 10.19 10.19 0 0 0 -.8 1.39 3.71 3.71 0 0 0 -.34 1.55c.13 2.19.18 4.31-2.59 5.91l4.68 2.39c0 .3.19 1.41-.11 1.57-1.9 1-.94 2.64-1.16 4a18.2 18.2 0 0 0 -.14 1.9c-3.45.11-6.88.93-9.21-2.54-.36-.54-1.25-.72-1.91-1.07a.48.48 0 0 1 -.06-.18c0-2.65 0-5.3-.06-7.95 0-3.31-2-4.78-5.12-4-4.11 1.06-8.26 2-12.66 3.06-.06.73-.16 1.87-.25 3l-1.94.42c.2 1.6-1.08 3.64 1.76 3.9v17.07h-13.71v-9c2.39-.22 2.76-.77 3.08-4l-9.63-1.47v-19a1.87 1.87 0 0 1 .1-.62c.44-1.31.9-2.61 1.42-4.1l-2.71-.42v-28.01h-.72v14h-6c1.65 1.56 2.84 2.8 4.15 3.89a3.36 3.36 0 0 1 1.44 3.23c-.32 2.54.51 5.12-.79 7.66-.79 1.53.91 3.07 1.09 4.53a87 87 0 0 1 .14 10.59l-2.32.39a4.5 4.5 0 0 0 1.66 1.49 1.39 1.39 0 0 1 .61.85 1.52 1.52 0 0 1 -.55.92c-.62.57-1.29 1.09-2.17 1.81-3.4.07-4.14.14-4.48 4a7.92 7.92 0 0 1 -1.43-.32c.08-1.54.27-3.08.45-4.72h-6.68c0 .42-.18.81 0 1 1.67 1.92.9 4.21.85 6.32 0 .87-1 2.35-1.77 2.45a50.12 50.12 0 0 1 -6.95.12c-.16-1-.29-1.8-.42-2.59l-1.29-.2a39.53 39.53 0 0 1 -2-3.47 12.33 12.33 0 0 1 -1.32-4c-.19-3.27 0-6.55-.09-9.83a4.12 4.12 0 0 0 -.57-1.35c-.26.46-.73.91-.74 1.38-.06 3.62 0 7.25 0 10.88 0 3.12-1.57 4.64-4.67 4.64h-2.45v4.39c-2.38-.68-3.29.52-3.71 2.37-.33 1.43-1.21 1.71-2.75 1.15.75-1.48-1.36-3.77 1.64-4.53-.15-.42-.3-1.2-.47-1.2-2.41-.08-4.83 0-7.75 0 2.88 3.11 1.34 6.34 1.75 9.48-1.25.09-3-.14-3.19.29-1 2.38-2.73 1.09-4.3 1.23v-5l4.76-.25c.68-4.15-.62-6.16-5.27-5.87-4.06.24-8.14 0-12.21.1a6.69 6.69 0 0 0 -3.41 1.13 6.44 6.44 0 0 1 -4 1.35c-5.83-.08-11.66-.06-17.49 0-.57 0-1.12.58-1.68.89a5.72 5.72 0 0 0 1.74.85 27 27 0 0 0 3.37 0h16.51c.9 1.76-.06 2.25-1.57 2.4v6.64c-3.51 0-6.8 0-10.09 0-.36 0-.71-.44-1.07-.67.36-.3.71-.82 1.09-.85 1.45-.1 2.91 0 4.29 0 1.26-4.16-1-6.28-4.7-6.06-3.92.24-7.87.14-11.8 0a8.06 8.06 0 0 0 -5.46 1.62 5.89 5.89 0 0 1 -3.26 1c-6.11.1-12.23 0-18.34.06a6 6 0 0 0 -.85.12v2h21v2.15c-.56.05-1 .12-1.39.12-16.23.05-32.45.07-48.68.15a44.82 44.82 0 0 1 -18.29-3.37c-1.68-.73-2 .24-2 1.55a15.36 15.36 0 0 0 7.4 13.94 15.54 15.54 0 0 0 9.77 2.7c2-.15 2.78.54 2.91 2.47a16.73 16.73 0 0 0 .8 3.88 1.78 1.78 0 0 0 1.19 1.07c3.3.32 6.62.52 9.93.76-.08.3-.17.6-.26.9l2.26 1.64c.18-1.22.27-1.82.39-2.61l9.07.8a5.15 5.15 0 0 1 1 .31 10.74 10.74 0 0 0 3 .92c10.39 0 20.79-.12 31.18-.14q36.86-.09 73.72-.13 31.29-.07 62.59-.19l90.16-.22q41.73-.09 83.45-.13a5.29 5.29 0 0 0 4.58-2c2.64-3.43 5.34-6.82 7.83-10.36 3.57-5.06 7.5-9.74 12.66-13.3.53-.37.77-1.14 1.4-2.13zm-94.78-32.26 2.26-.11v2.38l-2.26.14z" fill="#b5b5b5" transform="translate(-46 -179.73)"/></svg>